<svg xmlns="http://www.w3.org/2000/svg" version="1.1" x="0" y="0" width="253" height="140" viewBox="-373 217 253 140" xml:space="preserve"><style type="text/css">
	.st0{fill:#00205B;}
</style><path class="st0" d="M-293.1 286.7c0-1.1 0.1-2.3 0.2-3.4l-36.3-18.7 36.9 14.8c0.3-1.4 0.6-2.8 1-4.2l-30.3-22 31.5 18.4c0.6-1.5 1.3-3.1 2-4.5l-24.1-24 25.8 20.9c1-1.6 2.1-3.2 3.3-4.7l-18.1-24.9 20.2 22.4c1.4-1.6 2.9-3 4.6-4.4l-12.5-24.9 14.8 23c1.9-1.4 3.9-2.6 6-3.7l-7.4-24.4 9.9 23.2c2.3-1 4.6-1.9 7-2.5l-2.8-24.1 5.5 23.5c2.6-0.5 5.4-0.9 8.1-0.9l1.3-24.6 1.3 24.6c2.7 0.1 5.4 0.4 8 0.9l5.5-23.5 -2.9 24.1c2.4 0.6 4.8 1.5 7 2.5l9.9-23.2 -7.3 24.5c2.1 1.1 4.1 2.3 6 3.7l14.8-23 -12.4 24.9c1.6 1.4 3.1 2.8 4.6 4.4l20.2-22.4 -18.2 24.8c1.2 1.5 2.3 3.1 3.3 4.7l25.8-20.9 -24.1 24c0.7 1.5 1.4 3 2 4.5l31.5-18.4 -30.3 22c0.4 1.4 0.7 2.8 1 4.2l36.8-14.8 -36.3 18.8c0.1 1.1 0.2 2.2 0.2 3.4l41.3-10 -41.4 14.2c-0.1 1-0.2 2-0.3 3l0.9-0.1 44.1-4.2 -43.4 8.2 -2.4 0.4c-0.2 0.7-0.3 1.4-0.5 2.1l2.9 0.1 44.3 2.3 -8.5 0.4h-39.6 -1.3c1.7-4.7 2.6-9.8 2.6-15.1 0-25-20.2-45.2-45.2-45.2s-45.2 20.2-45.2 45.2c0 5.3 0.9 10.4 2.6 15.1h-1.4 -39.6l-8.5-0.4 44.3-2.3 2.9-0.1c-0.2-0.7-0.4-1.4-0.5-2.1l-2.4-0.4 -43.4-8.2 44.1 4.2 0.9 0.1c-0.1-1-0.2-2-0.3-3l-41.3-14.3L-293.1 286.7zM-177.9 350.8l2.3-3.8c0.5-0.8 0.7-1 1.5-1v-0.6h-3.1v0.6h0.2c0.9 0 0.8 0.6 0.5 1.2l-1.5 2.6 -2.1-3.1c-0.3-0.4-0.2-0.7 0.6-0.7h0.2v-0.6h-4.3v0.6h0.1c0.7 0 0.8 0.1 1.2 0.7l2.8 4.1v2c0 0.7-0.2 1-1 1h-0.5v0.6h4.5v-0.6h-0.2c-0.9 0-1.1-0.4-1.1-1.1L-177.9 350.8 -177.9 350.8zM-194 346.2h1.6c1 0 1.2 0.2 1.4 1.7h0.5l-0.2-2.7h-0.4c-0.2 0.2-0.3 0.2-0.6 0.2h-6.3c-0.2 0-0.3 0-0.4 0 -0.1 0-0.1-0.1-0.3-0.2h-0.4l-0.2 2.7h0.5c0.2-1.5 0.4-1.7 1.4-1.7h1.6v6.6c0 0.8-0.3 1.1-1 1.1h-0.4v0.6h4.7v-0.6h-0.3c-0.9 0-1.1-0.3-1.1-1.1v-6.6H-194zM-211.1 346h0.2c0.7 0 1 0.3 1 1.1v5.8c0 0.6-0.3 1-1 1h-0.2v0.6h4.2v-0.6h-0.2c-0.8 0-1-0.3-1-1.1v-5.7c0-0.8 0.3-1.1 1-1.1h0.2v-0.6h-4.2V346zM-224.6 354.4h0.3c0.1-0.2 0.2-0.2 0.3-0.2 0.2 0 1.2 0.5 2.3 0.5 1.6 0 2.8-1.2 2.8-2.7 0-0.7-0.2-1.3-0.8-1.9 -1.5-1.6-3.7-1.9-3.7-3.2 0-0.6 0.6-1 1.3-1 1 0 1.9 0.8 2.1 1.9h0.5l-0.2-2.3h-0.3c-0.1 0.1-0.2 0.2-0.3 0.2 -0.2 0-1-0.4-2-0.4 -1.6 0-2.7 1-2.7 2.4 0 2.9 4.2 2.8 4.2 5 0 0.8-0.7 1.4-1.5 1.4 -1 0-1.8-0.7-2.3-2.2h-0.5L-224.6 354.4zM-239.2 345.9h0.7c1.3 0 2.3 0.6 2.3 2.1 0 1.6-0.9 2.1-2.5 2.1h-0.5V345.9zM-239.2 350.6h1c0.8 0.8 1.6 2.3 2.3 3 0.6 0.7 1.3 0.9 2.9 0.9 0.4 0 0.5 0 0.8 0V354c-0.8-0.1-1.2-0.3-1.7-0.9 -0.9-1-1.4-2.2-2.3-3 1.2-0.4 2-1.2 2-2.3 0-0.6-0.2-1.2-0.6-1.7 -0.7-0.7-1.7-1-3.7-1 -0.5 0-1.4 0-2.2 0.1 -0.5 0-1 0.1-1.7 0.1v0.6h0.3c0.9 0 1.1 0.4 1.1 1.1v5.7c0 0.8-0.3 1.1-1.1 1.1h-0.2v0.6h4.6v-0.6h-0.4c-0.8 0-1-0.3-1-1.1v-2.1H-239.2zM-250.4 347.6h0.5l-0.1-2.1h-7.3v0.6h0.1c0.9 0 1.1 0.3 1.1 1.1v5.8c0 0.7-0.3 1-1 1h-0.5v0.6h7.9l0.2-2.3h-0.5c-0.2 1.2-0.7 1.5-1.5 1.5h-2.2c-0.4 0-0.5-0.1-0.5-0.8v-2.6h1.9c1 0 1.2 0.3 1.2 1h0.5v-2.9h-0.5c0 0.8-0.3 1-1 1h-2.1v-3.3h2.9C-250.7 346.2-250.6 346.6-250.4 347.6zM-268.9 354.7h0.8l2.7-7.1c0.4-1.1 0.7-1.5 1.5-1.5h0.1v-0.6h-3.3v0.6h0.3c0.8 0 1.1 0.3 0.9 0.8l-2 5.3 -2.1-4.8c-0.4-0.9-0.2-1.3 0.9-1.3h0.2v-0.6h-4.6v0.6h0.1c0.8 0 0.9 0.2 1.4 1.2L-268.9 354.7zM-284.4 346h0.2c0.7 0 1 0.3 1 1.1v5.8c0 0.6-0.3 1-1 1h-0.2v0.6h4.2v-0.6h-0.2c-0.8 0-1-0.3-1-1.1v-5.7c0-0.8 0.3-1.1 1-1.1h0.2v-0.6h-4.2V346zM-300.1 347.2l6.3 7.3h0.7v-7.8c0-0.6 0.3-0.7 1.1-0.7h0.1v-0.6h-3.4v0.6h0.1c1.1 0 1.3 0.2 1.3 1.2v4.4l-5.4-6.2h-2.7v0.6c0.4 0 0.8 0.1 1.1 0.3v6.7c0 0.6-0.2 0.9-1 0.9h-0.1v0.6h3.2v-0.6c-1.1 0-1.3-0.3-1.3-1.2C-300.1 352.7-300.1 347.2-300.1 347.2zM-312.4 346h0.2c0.8 0 1.1 0.5 1.1 1.5v3.5c0 1.6-0.9 2.7-2.6 2.7 -1.2 0-2.4-0.6-2.4-2.4V347c0-0.7 0.4-1 0.9-1h0.2v-0.6h-4v0.6h0.2c0.7 0 0.9 0.3 0.9 1v4.3c0 2.2 1.5 3.3 3.9 3.3 1.6 0 3.7-0.6 3.7-3.8v-3.6c0-0.7 0.2-1.2 1.2-1.2h0.1v-0.6h-3.4V346zM-211.4 271.5c0.8-0.4 0.8-1.1 0.4-1.9l-0.2-0.4 -2.2 1.1C-212.9 271.1-212.4 272-211.4 271.5zM-243.4 248c-1.1-0.1-1.9 0.7-2 2 -0.1 1.7 0.6 2.8 1.8 2.9 1.2 0.1 1.8-0.9 1.9-2.1C-241.5 249.4-242.1 248.1-243.4 248zM-271.9 257.6c-0.6 0-1.1 0.2-1.8 0.8 -0.2 0.1-0.3 0.3-0.4 0.4l2.7 3c0.4 0.4 0.4 0.4 0.9 0 1.4-1.3 0.9-2.6 0.2-3.4C-270.7 258-271.3 257.6-271.9 257.6zM-286.5 282.5c-0.1 1.1 0.6 1.9 1.9 2.1 1.7 0.2 2.9-0.5 3-1.6 0.2-1.2-0.8-1.9-2-2C-285 280.7-286.3 281.2-286.5 282.5zM-246.6 245.2c-23.7 0-42.9 19.2-42.9 42.9 0 5.3 1 10.4 2.7 15.1h11.2c-2.4-4.5-3.7-9.6-3.7-15.1 0-18.1 14.6-32.7 32.7-32.7s32.7 14.6 32.7 32.7c0 5.4-1.3 10.6-3.7 15.1h11.2c1.8-4.7 2.7-9.8 2.7-15.1C-203.6 264.4-222.9 245.2-246.6 245.2zM-281.9 292.9c0-0.4 0-0.7-0.5-0.6l-3.6 0.2c-0.6 0-0.7 0.2-0.6 0.7h-0.5l-0.3-4.6 1.4-0.1v0.4c-0.4 0.1-0.8 0.1-0.7 0.5l0.1 1.6 1.9-0.1 -0.1-1.2c0-0.6-0.1-0.7-0.7-0.7v-0.5l1.9-0.1v0.5c-0.4 0-0.6 0.1-0.6 0.6l0.1 1.3 1.4-0.1c0.7-0.1 0.7-0.2 0.6-0.8h0.5l0.2 2.8L-281.9 292.9zM-281.1 283.2c-0.6 4.5-6.5 3.5-5.9-1C-286.4 277.9-280.5 278.8-281.1 283.2zM-279 275.2c-1.2 3-3.3 1.6-5.4 0.7 -0.6-0.2-0.6 0.1-0.8 0.5l-0.4-0.2 1.1-2.7 0.4 0.2c-0.1 0.4-0.3 0.7 0.2 0.9l2.4 1c1 0.4 1.6-0.2 1.9-0.9 0.4-1 0-1.8-0.8-2.1l-2-0.8c-0.6-0.2-0.8-0.2-1 0.3l-0.1 0.2 -0.5-0.2 0.9-2.3 0.4 0.3c-0.2 0.5-0.2 0.8 0.3 1C-280.4 271.9-277.9 272.4-279 275.2zM-274 266.3l-6 0.9 2.6 1.8c0.5 0.4 0.7 0.1 1-0.3l0.4 0.3 -1.3 1.9 -0.4-0.3c0.2-0.3 0.3-0.6 0-0.8l-3.3-2.3c-0.2 0.1-0.4 0.3-0.5 0.5l-0.4-0.3 1.1-1.6 5-0.8 -2.1-1.4c-0.6-0.4-0.7-0.2-1.1 0.4l-0.4-0.3 1.4-2 0.3 0.4c-0.2 0.3-0.4 0.6-0.1 0.8l3.9 2.8L-274 266.3zM-270.2 262.2l-2.1 1.9 -0.3-0.4c0.3-0.3 0.6-0.5 0.2-1l-2.3-2.5c-0.5-0.5-0.6-0.4-1.1 0l-0.3-0.2c0.3-0.4 0.7-0.7 1.1-1.1 0.3-0.3 0.6-0.6 0.9-0.8 1.3-1.2 2.1-1.6 3.1-1.5 1.5 0.1 2.7 1.5 2.6 3C-268.5 260.2-268.8 261-270.2 262.2zM-265.9 258.8l-0.2-0.4 0.4-0.2c0.4-0.2 0.5-0.4 0.3-0.8l-1.7-3.1c-0.3-0.6-0.6-0.3-1-0.1l-0.2-0.4 4.4-2.4 0.8 1.2 -0.4 0.2c-0.2-0.3-0.4-0.7-0.9-0.4l-1.7 0.9 0.9 1.6 1.2-0.6c0.4-0.2 0.4-0.4 0.2-0.8l0.4-0.2 0.9 1.7 -0.4 0.2c-0.3-0.5-0.4-0.5-0.9-0.2l-1.1 0.6 0.7 1.3c0.2 0.3 0.2 0.3 0.4 0.2l1.3-0.7c0.6-0.3 0.6-0.6 0.4-1.2l0.4-0.2 0.6 1.4L-265.9 258.8zM-254 252.9c-0.3 0.6-0.9 1.2-2.7 1.7l-2.8 0.7 -0.1-0.5c0.4-0.1 0.8-0.2 0.7-0.7l-0.9-3.3c-0.2-0.6-0.4-0.6-1-0.5l-0.1-0.5c0.5-0.2 0.9-0.3 1.4-0.5 0.4-0.1 0.7-0.2 1.2-0.4 1.7-0.5 2.6-0.5 3.4 0C-253.6 249.9-253.3 251.6-254 252.9zM-243.8 253.4c-4.5-0.4-3.8-6.3 0.7-5.9C-238.7 247.9-239.4 253.8-243.8 253.4zM-231.1 251c-0.3-0.1-0.8-0.3-0.9 0.1l-1.5 4.6 -0.6-0.2 -2.6-5.4 -1 3c-0.2 0.6 0.1 0.7 0.6 0.9l-0.1 0.5 -2.2-0.7 0.2-0.4c0.4 0.1 0.6 0.2 0.8-0.3l1.2-3.8c-0.2-0.2-0.4-0.3-0.6-0.4l0.2-0.5 1.8 0.6 2.2 4.6 0.8-2.4c0.2-0.7-0.1-0.7-0.7-0.9l0.1-0.5 2.3 0.7V251zM-225.2 260c0.7 0.5 1.5 0.4 2.2 0l0.4 0.3c-0.4 0.4-1 0.8-1.5 1.1 -0.3-0.4-0.6-0.5-1-0.7 -0.2-0.1-0.5-0.2-0.7-0.4 -1.5-1.1-1.9-3-0.9-4.3 1-1.4 3-1.5 4.5-0.4 0.4 0.3 0.7 0.7 1 1.1 0.1 0.1 0.1 0.2 0.3 0.2l0.3 0.2 -0.9 1.4 -0.4-0.3c0.3-0.8 0.1-1.6-0.6-2.1C-224.8 254.4-227.4 258.4-225.2 260zM-217.7 268.3l-1.9-2.3 0.4-0.3c0.3 0.4 0.5 0.6 1 0.2l1.2-1 -1.8-2.1 -1.2 1c-0.5 0.4-0.2 0.6 0.1 1l-0.4 0.3 -1.9-2.3 0.4-0.3c0.3 0.3 0.5 0.6 1 0.2l2.7-2.3c0.5-0.4 0.2-0.6-0.1-1l0.4-0.3 1.9 2.3 -0.4 0.3c-0.3-0.3-0.5-0.6-1-0.3l-1 0.8 1.8 2.1 1-0.8c0.4-0.4 0.3-0.6 0-1l0.4-0.3 1.9 2.3 -0.4 0.3c-0.3-0.4-0.5-0.7-1-0.3l-2.7 2.3c-0.5 0.4-0.2 0.6 0.1 1L-217.7 268.3zM-214.1 275.3c-0.7-1.5-0.5-1.9 0.2-3.1 0.2-0.4 0.4-0.8 0.5-1.1l-0.3-0.5 -1.1 0.6c-0.6 0.3-0.3 0.7-0.1 1.1l-0.4 0.2 -1.4-2.9 0.4-0.2c0.2 0.4 0.3 0.8 0.9 0.6l3.1-1.5c0.6-0.3 0.4-0.6 0.2-1.1l0.4-0.2c0.2 0.4 0.4 0.7 0.6 1.1 0.2 0.4 0.6 1 0.7 1.3 0.6 1.2 0.7 1.9 0.5 2.5 -0.1 0.4-0.4 0.7-0.8 0.9 -0.6 0.3-1.3 0.1-1.9-0.5 -0.2 0.7-0.7 1.3-0.9 2 -0.2 0.5-0.1 0.8 0.1 1.3l-0.4 0.2C-213.9 275.6-214 275.5-214.1 275.3zM-212.7 279.6l-0.9-2.8 0.5-0.1c0.1 0.4 0.2 0.7 0.7 0.6l3.4-1c0.4-0.1 0.5-0.3 0.4-0.7l-0.1-0.2 0.5-0.1 0.9 2.8 -0.5 0.1c-0.1-0.5-0.2-0.8-0.8-0.6l-3.4 1c-0.6 0.2-0.5 0.5-0.3 1H-212.7zM-212 282c0-0.2 0.1-0.3-0.1-0.3v-0.3l1.7-0.5 0.1 0.5c-0.7 0.3-1.2 0.8-1.1 1.6 0.1 0.6 0.5 0.9 0.9 0.8 1.2-0.2 0.8-3 2.6-3.2 0.9-0.1 1.6 0.6 1.8 1.6 0.1 0.4 0 0.8 0 1.2 0 0.2 0 0.2 0.1 0.3v0.3l-1.5 0.4 -0.1-0.5c1.5-0.7 1-2.4 0.3-2.3 -0.4 0-0.5 0.4-0.7 0.9 -0.4 1-0.7 2.3-2 2.4 -1 0.1-1.8-0.6-2-1.7C-212.1 282.9-212.1 282.5-212 282zM-205.8 288c-0.1 0.1-0.1 0.2-0.1 0.3l-0.3 4.2c0 0.2 0 0.2 0.1 0.4v0.4h-1.8v-0.5c0.8-0.1 1 0 1.1-0.8l0.1-1 -4-0.3c-0.7 0-0.6 0.4-0.7 0.9h-0.5l0.2-3.3h0.5c0 0.5-0.2 1 0.5 1l4 0.3 0.1-1c0.1-0.8-0.2-0.8-1-1v-0.5l1.8 0.3v0.4C-205.7 288-205.7 288-205.8 288zM-256.2 249.7c-0.5-0.3-1.1-0.3-2-0.1 -0.2 0.1-0.4 0.1-0.6 0.2l1.1 3.9c0.1 0.5 0.2 0.6 0.8 0.4 1.9-0.5 2-1.9 1.7-2.9C-255.3 250.5-255.7 250-256.2 249.7zM-346.5 321.1c0.9-1.8 0.9-4.6-0.1-6.2 -0.4-0.6-0.9-1.2-1.4-1.6 -1.4-1-3.5-1.1-5.1-0.5l0.1 10.9c0 0.1 0.4 0 0.5 0C-350 323.9-347.5 323.5-346.5 321.1zM-322.7 325.2c-0.2 0.1-0.4 0.2-0.5-0.1 -0.1-0.4-0.3-0.6-0.5-0.7 -0.5-0.2-1.2-0.3-1.4-0.3 -1.7-0.1-4 0-5.6 0.1 0 3.6-0.2 7.2 0 10.7 2.7-0.1 5.4 0.3 8-0.2 0.7-0.2 1.4-0.9 1.6-1.6 0.2-0.3 0.4-0.1 0.5 0.1 -0.2 0.9-0.4 1.7-0.8 2.5 -0.2 0.4-0.7 0.6-1.1 0.7 -4.2 0.1-7.7-0.2-11.8 0l-1.1 0.1c-1.6 0.1-3.4 0-4.8-0.7 -3.2-1.8-4.8-5.2-7-8 -0.7-1-1.4-1.9-2.1-2.9 -1.2 0.2-2.5 0.1-3.8 0.1 -0.1 3.1-0.1 6.1-0.1 9.1 0.1 0.7 0.2 1.2 0.7 1.6 0.3 0.2 0.9 0.1 0.9 0.5 0 0.1-0.2 0.3-0.2 0.3 -1.9-0.1-3.6-0.1-5.5-0.1 -0.2 0-0.3-0.2-0.2-0.3 0-0.1 0.2-0.2 0.4-0.3 0.2 0 0.8-0.1 1.2-0.4 0.3-0.4 0.3-0.8 0.4-1.3 0.1-7.1 0.1-12.7 0.1-19.8 0-0.8-0.3-1.6-1-2 -0.3-0.2-0.5-0.1-0.7-0.3 -0.1-0.2 0.1-0.3 0.2-0.3 1.8 0.1 3.6-0.1 5.4-0.2 1.8-0.1 3.6 0 5.2 0.8 0.8 0.4 1.5 1 2 1.7 1.3 1.8 1.5 4.5 0.6 6.6 -0.6 1.3-1.7 2.5-2.9 3.3 2.3 3.6 4.7 7.2 7.8 10.4 0.7 0.6 1.5 1.2 2.4 1.5 0.1 0.1 0.3 0.1 0.5 0.1 0 0 0.6 0.1 0.9 0 0.2 0 0.4-0.1 0.5-0.1 0.5-0.2 1.1-0.6 1.2-1.1l0.2-0.9v-6.4V315c-0.1-0.9 0-1.9-0.8-2.5 -0.2-0.2-0.6-0.1-0.6-0.6v-0.1h0.3c3.2 0 9.7 0 10 0 0.2 0 0.5 0.1 0.7 0.3 0.5 0.5 0.5 1.2 0.6 1.9 -0.2 0.2-0.3 0.1-0.5-0.1 -0.4-0.8-1.3-0.9-2-0.9l-5.2 0.1c0 3.2-0.1 6.4 0 9.6 1.9-0.1 4.5 0.1 6.4-0.3 0.5-0.1 0.9-0.3 1.1-1 0.1-0.3 0.3-0.2 0.5-0.1 -0.1 0.9-0.1 1.7-0.1 2.5C-322.8 323.9-322.7 324.8-322.7 325.2zM-141.4 317.6c2.5-4.7 7.5-7 12.8-6.5 2.4 0.2 4.7 1.1 7 1.7 0.1 0.8-0.1 1.9-0.1 2.4 -0.1 0.3-0.2 1-0.4 1.2 -0.2 0.1-0.4 0-0.4-0.3 0-1.1-0.7-2-1.6-2.6 -2.9-1.6-7.2-1.7-10.3-0.4 -3.2 1.1-5.3 4.5-5.6 7.9 -0.3 4.4 0.7 8.6 3.9 11.7 2.8 2.6 7.2 3 10.9 2 1.6-0.4 3.3-1.8 3.7-3.5 0-0.2 0.4-0.4 0.6-0.2 0.3 0.1 0 0.9-0.2 1.6 -0.2 0.8-0.6 1.8-0.9 2.6 -5.4 2-13.1 2.1-17.5-2.6l-1-1.1C-143 327.7-143.5 321.7-141.4 317.6zM-281.8 331.2V314c0 0 0-0.3-0.1-0.6 -0.2-0.8-1-1-1.7-1.2 -0.1 0-0.3-0.3-0.2-0.5 0.1-0.1 0.3-0.1 0.3-0.1 0.3 0 0.7 0.1 1 0.1 1.4 0 2.8 0 4.1-0.1 0.1 0.3-0.1 0.5-0.4 0.6 0 0-0.8 0.3-1.1 0.8 -0.4 0.6-0.3 2.7-0.3 4 0 0.9 0 18.7 0 18.7 0 0.2 0 0.6-0.2 0.7 -0.2 0.1-0.4-0.1-0.4-0.1s-14.4-17-17.6-20.7c0 1.8-0.1 5.5-0.1 9.3 0 4.1 0 8.1 0.2 9.6 0 0.4 0.4 0.8 0.8 1 0.3 0.2 0.9 0.1 0.9 0.5 0 0.2-0.3 0.2-0.3 0.2 -1.3-0.1-3.8-0.1-5.2 0.1 -0.3-0.7 0.5-0.4 0.8-0.7 0.6-0.3 1-1.1 1-1.8l0.4-19.8c0 0 0-0.3-0.1-0.6 -0.2-0.8-1-1-1.8-1.2 -0.1 0-0.3-0.3-0.2-0.5 0.1-0.1 0.3-0.1 0.3-0.1 1.6 0.1 3.1 0.2 4.7-0.2 0.2 0.6-0.2 0.6-0.2 0.8 -0.1 0.5 0 0.9 0.2 1.3L-281.8 331.2zM-168.1 333.6c0-0.5 0-1 0-1.3v-17.6c-0.1-0.9 0.1-1.8-1-2.5 -0.1-0.1-0.4-0.2-0.4-0.3s0.2-0.2 0.3-0.2h10.6c0.4 0 0.9 0 1.1 0.5 0.2 0.5 0.3 1.1 0.3 1.7 -0.5 0.3-0.7-0.3-0.9-0.5 -0.5-0.4-1.5-0.5-3-0.4h-4.7c-0.1 2.9-0.1 6.3 0 9.2l6.1-0.2c0.4 0 0.9-0.3 1.2-0.7 0.2-0.4 0.2-0.8 0.4-0.8s0.3 0.2 0.3 0.4c0 0.1 0 0.2 0 0.3 0 1.1-0.2 2.3 0 3.4 0 0.2-0.1 0.4-0.3 0.4s-0.3-0.5-0.4-0.8c-0.3-0.6-0.8-0.6-1.3-0.6l-5.9 0.1v9.9 0.4c0.1 0.7 0.4 1.4 1.1 1.6 0.3 0.1 0.7 0.2 0.7 0.5 0 0.3-0.7 0.1-1.2 0.1 -1.3-0.1-3-0.2-4.5 0.1 -0.2 0-0.4 0-0.4-0.2 0-0.1 0.1-0.2 0.2-0.3 0.6-0.3 1.3-0.4 1.6-1 0.1-0.3 0.1-0.4 0.2-0.7C-168.1 334.1-168.1 333.6-168.1 333.6zM-371.1 333.6c0-0.5 0-1 0-1.3v-17.6c-0.1-0.9 0.1-1.8-1-2.5 -0.1-0.1-0.4-0.2-0.4-0.3s0.2-0.2 0.3-0.2h10.6c0.4 0 0.9 0 1.1 0.5s0.3 1.1 0.3 1.7c-0.5 0.3-0.7-0.3-0.9-0.5 -0.5-0.4-1.5-0.5-3-0.4h-4.7c-0.1 2.9-0.1 6.3 0 9.2l6.1-0.2c0.4 0 0.9-0.3 1.2-0.7 0.2-0.4 0.2-0.8 0.4-0.8 0.2 0 0.3 0.2 0.3 0.4 0 0.1 0 0.2 0 0.3 0 1.1-0.2 2.3 0 3.4 0 0.2-0.1 0.4-0.3 0.4 -0.2 0-0.3-0.5-0.4-0.8 -0.3-0.6-0.8-0.6-1.3-0.6l-5.9 0.1v9.9 0.4c0.1 0.7 0.4 1.4 1.1 1.6 0.3 0.1 0.7 0.2 0.7 0.5 0 0.3-0.7 0.1-1.2 0.1 -1.3-0.1-3-0.2-4.5 0.1 -0.2 0-0.4 0-0.4-0.2 0-0.1 0.1-0.2 0.2-0.3 0.6-0.3 1.3-0.4 1.6-1 0.1-0.3 0.1-0.4 0.2-0.7C-371.1 334.1-371.1 333.6-371.1 333.6zM-213.4 328.3l-5-12.2L-223 327c0 0-0.6 1.4-0.6 1.3H-213.4zM-218.2 312.1c0 0 0.2-0.4 0.3-0.4 0.2-0.1 0.3 0.1 0.3 0.1 3.2 7.5 6.4 15 9.6 22.5 0.3 0.9 1.1 1.5 2 1.6 0.3 0 0.4 0.3 0.3 0.5 -1.6-0.1-2.3-0.1-3.6-0.1l-2.4 0.1c0.5-0.5 0.7-0.9 0.7-1.6 0-0.1 0-0.4-0.1-0.5 -0.4-1.5-1.1-2.9-1.6-4.4h-11.6l-0.1 0.1c-0.6 1.5-1.4 3-1.7 4.6 -0.1 0.8 0.2 1.2 0.6 1.8 -1.4-0.1-2-0.5-4-0.1 -0.4 0.1-0.9 0.4-1.2-0.2 0.8-0.4 1.5-0.7 2.2-1.5 0.4-0.4 0.8-1.3 0.8-1.3l2.4-5.3L-218.2 312.1zM-146.9 311.8c0.2 0 0.4 0 0.4 0.1 -0.1 0.4-0.7 0.4-1.1 0.8 -0.9 0.7-0.8 1.2-0.8 2.1l0.1 15.4c0.1 1.6-0.2 3.2 0.1 4.8 0.1 0.4 0.4 0.6 0.7 0.8 0.3 0.2 0.6 0.3 0.6 0.5 -0.1 0.1-0.3 0.2-0.3 0.2 -1.7-0.3-3.3-0.2-5-0.1 -0.1-0.1-0.2-0.3 0-0.4 0.1-0.1 0.2-0.1 0.3-0.1 0.4-0.2 0.6-0.3 0.9-0.7 0.2-0.3 0.2-1 0.2-1v-19.6c-0.1-0.6-0.3-1.2-0.7-1.8 -0.4-0.4-1.3-0.5-1.2-0.9 0-0.1 0.3-0.1 0.3-0.1C-150.6 312-148.7 312-146.9 311.8L-146.9 311.8zM-317.4 318c-0.1-2.1 0.8-4.1 2.7-5.4 2.5-1.6 5.8-0.8 8.3 0v0.3c0.1 0.8 0.1 1.8-0.1 2.6 0 0.1-0.1 0.2-0.2 0.2h-0.1 -0.1c-0.5-1.3-1.9-2.6-3.3-2.8 -1.9-0.4-4 0.2-5 1.9 -0.7 1.2-0.6 2.8 0 3.9 0.5 0.9 1.6 1.7 2.3 2.4 2.1 1.7 4.4 3.1 6.4 5 1.4 1.6 1.7 4.1 1.1 6s-2.4 3.8-4.4 4.2c-2.5 0.7-5.1-0.1-7.5-0.2 -0.1-1.3-0.2-2.6-0.3-3.9 0-0.3 0.3-0.3 0.5-0.2 0.1 0.5 0.2 0.8 0.4 1.2 1 2.2 3.3 2.5 5.5 2.4 1.7-0.1 3.3-1.2 3.9-2.8 0.6-1.5 0.2-3.2-0.8-4.5 -0.8-1-1.8-1.7-2.8-2.4C-313.4 323.7-317.3 321.8-317.4 318zM-254.2 327.5c0.5-3 0.3-6.3-1-8.9 -1-2-2.6-4-4.6-5.1 -2.4-1.5-6-1.4-8.4 0 -3.2 1.5-4.9 4.8-5.4 8.1 -0.3 4.3 0.8 8.2 3.7 11.2 2.5 2.5 6.3 3.6 9.7 2.3C-257.2 333.9-254.8 330.6-254.2 327.5zM-272.5 314.8c3.7-3.4 9.6-4.4 14.2-2.4 2.1 0.9 4 2.8 5.1 4.7 2.3 3.9 2.7 9.7 0.1 13.7 -2.9 4.4-7.8 6.6-13.1 5.7 -4.1-0.5-8-4.1-9.3-7.9C-277.2 323.9-276.1 318.4-272.5 314.8zM-241.2 311.9h0.1c4 0.2 10.4-1.6 13.3 2.4 1.3 1.8 1.6 4.2 0.6 6.5 -0.9 2.2-3.1 3.3-5.1 3.6 -1.6 0.3-3.3 0.1-4.3-0.1 -0.2-0.1-0.2-0.4-0.1-0.5 0.1-0.1 0.3-0.1 0.3-0.1 1.8 0.3 4.6 0 6.1-1.4 1.7-1.6 1.7-5 0.6-7 -0.6-1.4-2-2.4-3.5-2.6 -1-0.1-3.2 0-4.2 0.3l-0.1 21c0.1 0.7 0.4 1.4 1.1 1.6 0.3 0.1 0.7 0.2 0.7 0.5 -0.1 0.3-0.7 0.1-1.2 0.1 -1.3-0.1-3-0.2-4.5 0.1 -0.2 0-0.4 0-0.4-0.2 0-0.1 0.1-0.2 0.2-0.3 0.6-0.3 1.3-0.4 1.6-1 0.1-0.3 0.1-0.7 0.1-0.7v-19.8c-0.1-0.9-0.7-1.6-1.4-2C-241.4 312.1-241.4 311.9-241.2 311.9zM-205.3 317.6c2.5-4.7 7.5-7 12.8-6.5 2.4 0.2 4.7 1.1 7 1.7 0.1 0.8-0.1 1.9-0.1 2.4 -0.1 0.3-0.2 1-0.4 1.2 -0.2 0.1-0.4 0-0.4-0.3 0-1.1-0.7-2-1.6-2.6 -2.9-1.6-7.2-1.7-10.3-0.4 -3.2 1.1-5.3 4.5-5.6 7.9 -0.3 4.4 0.7 8.6 3.9 11.7 2.8 2.6 7.2 3 10.9 2 1.6-0.4 3.3-1.8 3.7-3.5 0-0.2 0.4-0.4 0.6-0.2 0.3 0.1 0 0.9-0.2 1.6 -0.2 0.8-0.6 1.8-0.9 2.6 -5.4 2-13.1 2.1-17.5-2.6l-1-1.1C-206.9 327.7-207.5 321.7-205.3 317.6zM-174.6 311.8c0.2 0 0.4 0 0.4 0.1 -0.1 0.4-0.7 0.4-1.1 0.8 -0.9 0.7-0.8 1.2-0.8 2.1l0.1 15.4c0.1 1.6-0.2 3.2 0.2 4.8 0.1 0.4 0.4 0.6 0.7 0.8 0.3 0.2 0.6 0.3 0.6 0.5 -0.1 0.1-0.3 0.2-0.3 0.2 -1.7-0.3-3.3-0.2-5-0.1 -0.1-0.1-0.1-0.3 0-0.4 0.1-0.1 0.2-0.1 0.3-0.1 0.4-0.2 0.6-0.3 0.8-0.7 0.2-0.3 0.2-1 0.2-1v-19.6c-0.1-0.6-0.3-1.2-0.7-1.8 -0.4-0.4-1.3-0.5-1.2-0.9 0-0.1 0.3-0.1 0.3-0.1C-178.3 312-176.4 312-174.6 311.8L-174.6 311.8zM-233 283.4v1h-0.7v14.1h0.7v1h3.1v-1h0.7v-14.2h-0.7v-0.9H-233zM-260.1 283.4h-3.1v0.9h-0.7v14.1h0.7v1h3.1v-1h0.7v-14.1h-0.7V283.4zM-246.6 257.7c16.8 0 30.4 13.6 30.4 30.4 0 5.5-1.5 10.6-4 15.1h-4v-3.8h-1.7v-1h-0.7v-14.1h0.7v-0.9h1.7v-7.5h-6.6c0 0 0 0-15.8-13.8l-15.8 13.8h-6.6v7.5h1.7v0.9h0.7v14.1h-0.7v1h-1.7v3.8h-4c-2.5-4.4-4-9.6-4-15.1C-277 271.3-263.4 257.7-246.6 257.7zM-239 303.2h-15.2v-3.8h-1.8v-1h-0.7v-14.1h0.7v-1h1.9c0-3.5 3.3-6.4 7.5-6.6 4.2 0.2 7.5 3 7.5 6.6h1.9v1h0.7v14.1h-0.7v1h-1.8V303.2z"/></svg>